<svg aria-hidden="true" xmlns="http://www.w3.org/2000/svg" xmlns:xlink="http://www.w3.org/1999/xlink"><symbol viewBox="0 0 25 24" fill="none" id="add" xmlns="http://www.w3.org/2000/svg">
<rect x="1.79297" y="1" width="22" height="22" rx="3" stroke="currentColor" stroke-width="2"/>
<path fill-rule="evenodd" clip-rule="evenodd" d="M12.793 5C13.3453 5 13.793 5.44772 13.793 6V18C13.793 18.5523 13.3453 19 12.793 19C12.2407 19 11.793 18.5523 11.793 18V6C11.793 5.44772 12.2407 5 12.793 5Z" fill="currentColor"/>
<path fill-rule="evenodd" clip-rule="evenodd" d="M5.79297 12C5.79297 11.4477 6.24068 11 6.79297 11H18.793C19.3453 11 19.793 11.4477 19.793 12C19.793 12.5523 19.3453 13 18.793 13H6.79297C6.24068 13 5.79297 12.5523 5.79297 12Z" fill="currentColor"/>
</symbol><symbol viewBox="0 0 52 52" fill="none" id="back" xmlns="http://www.w3.org/2000/svg">
<rect x="-1" y="1" width="50" height="50" rx="25" transform="matrix(-1 0 0 1 50 0)" stroke="currentColor" stroke-width="2"/>
<path fill-rule="evenodd" clip-rule="evenodd" d="M31.784 16.3793C31.4412 15.9463 30.8123 15.8732 30.3793 16.216L19.3211 24.9704C18.3412 25.7462 18.3049 27.2206 19.2455 28.0436L30.3415 37.7526C30.7571 38.1163 31.3889 38.0742 31.7525 37.6585C32.1162 37.2429 32.0741 36.6111 31.6585 36.2475L20.5625 26.5385L31.6207 17.7841C32.0537 17.4413 32.1268 16.8124 31.784 16.3793Z" fill="currentColor"/>
</symbol><symbol viewBox="0 0 25 24" fill="none" id="basket" xmlns="http://www.w3.org/2000/svg">
<path fill-rule="evenodd" clip-rule="evenodd" d="M7.5 21.5C7.5 20.3954 8.39543 19.5 9.5 19.5C10.6046 19.5 11.5 20.3954 11.5 21.5C11.5 22.6046 10.6046 23.5 9.5 23.5C8.39543 23.5 7.5 22.6046 7.5 21.5Z" fill="currentColor"/>
<path fill-rule="evenodd" clip-rule="evenodd" d="M17.5 21.5C17.5 20.3954 18.3954 19.5 19.5 19.5C20.6046 19.5 21.5 20.3954 21.5 21.5C21.5 22.6046 20.6046 23.5 19.5 23.5C18.3954 23.5 17.5 22.6046 17.5 21.5Z" fill="currentColor"/>
<path fill-rule="evenodd" clip-rule="evenodd" d="M0.5 1.5C0.5 0.947715 0.947715 0.5 1.5 0.5H5.5C5.98116 0.5 6.39411 0.842665 6.48285 1.31557L7.33055 5.8332H23.5C23.796 5.8332 24.0768 5.96435 24.2668 6.19133C24.4568 6.41831 24.5365 6.71781 24.4844 7.0092L22.8831 15.9654C22.7516 16.6717 22.3892 17.319 21.8439 17.7872C21.2999 18.2543 20.6092 18.5115 19.8908 18.4996H10.1892C9.47079 18.5115 8.78009 18.2543 8.2361 17.7872C7.69104 17.3192 7.32869 16.6722 7.19705 15.9662C7.197 15.9659 7.1971 15.9664 7.19705 15.9662L5.52594 7.06049C5.51955 7.03297 5.51429 7.00501 5.51021 6.97667L4.67019 2.5H1.5C0.947715 2.5 0.5 2.05228 0.5 1.5ZM7.70584 7.8332L9.1631 15.5993C9.21447 15.8751 9.35298 16.1101 9.53899 16.2698C9.72344 16.4282 9.94339 16.5042 10.1596 16.4998L10.18 16.4996H19.9L19.9204 16.4998C20.1366 16.5042 20.3566 16.4282 20.541 16.2698C20.7263 16.1106 20.8645 15.8768 20.9163 15.6022C20.9165 15.6012 20.9167 15.6002 20.9169 15.5993L22.3054 7.8332H7.70584Z" fill="currentColor"/>
</symbol><symbol viewBox="0 0 22 24" fill="none" id="bin" xmlns="http://www.w3.org/2000/svg">
<path d="M4.14502 24C3.42314 24 2.80496 23.7387 2.29046 23.216C1.77596 22.6933 1.51914 22.0658 1.52002 21.3333V4H1.20752C0.655235 4 0.20752 3.55228 0.20752 3C0.20752 2.44772 0.655235 2 1.20752 2H6.77002V1C6.77002 0.447715 7.21773 0 7.77002 0H13.645C14.1973 0 14.645 0.447715 14.645 1V2H20.2075C20.7598 2 21.2075 2.44772 21.2075 3C21.2075 3.55228 20.7598 4 20.2075 4H19.895V21.3333C19.895 22.0667 19.6378 22.6947 19.1233 23.2173C18.6088 23.74 17.991 24.0009 17.27 24H4.14502ZM17.9233 4H3.70752V22L17.9233 22V4ZM7.20752 17.6667C7.20752 18.219 7.65524 18.6667 8.20752 18.6667C8.7598 18.6667 9.20752 18.219 9.20752 17.6667V7.66667C9.20752 7.11438 8.7598 6.66667 8.20752 6.66667C7.65523 6.66667 7.20752 7.11438 7.20752 7.66667V17.6667ZM12.2075 17.6667C12.2075 18.219 12.6552 18.6667 13.2075 18.6667C13.7598 18.6667 14.2075 18.219 14.2075 17.6667V7.66667C14.2075 7.11438 13.7598 6.66667 13.2075 6.66667C12.6552 6.66667 12.2075 7.11438 12.2075 7.66667V17.6667Z" fill="currentColor"/>
</symbol><symbol viewBox="0 0 25 24" fill="none" id="change" xmlns="http://www.w3.org/2000/svg">
<rect x="1.20752" y="1" width="22" height="22" rx="3" stroke="currentColor" stroke-width="2"/>
<path fill-rule="evenodd" clip-rule="evenodd" d="M16.4958 7C16.4023 7 16.3098 7.01841 16.2234 7.05418C16.1371 7.08995 16.0586 7.14237 15.9925 7.20846L8.01022 15.1908L7.63276 16.5748L9.01677 16.1973L16.9991 8.21502C17.0652 8.14893 17.1176 8.07046 17.1534 7.98411C17.1891 7.89776 17.2075 7.80521 17.2075 7.71174C17.2075 7.61827 17.1891 7.52572 17.1534 7.43937C17.1176 7.35302 17.0652 7.27456 16.9991 7.20846C16.933 7.14237 16.8545 7.08995 16.7682 7.05418C16.6818 7.01841 16.5893 7 16.4958 7ZM15.4581 5.20642C15.7871 5.07014 16.1397 5 16.4958 5C16.8519 5 17.2045 5.07014 17.5335 5.20642C17.8625 5.3427 18.1615 5.54244 18.4133 5.79425C18.6651 6.04606 18.8648 6.345 19.0011 6.674C19.1374 7.00301 19.2075 7.35563 19.2075 7.71174C19.2075 8.06785 19.1374 8.42047 19.0011 8.74948C18.8648 9.07848 18.6651 9.37742 18.4133 9.62923L10.2432 17.7993C10.1201 17.9224 9.96711 18.0112 9.79921 18.057L6.47066 18.9648C6.12445 19.0592 5.75419 18.9609 5.50044 18.7071C5.24669 18.4534 5.14836 18.0831 5.24278 17.7369L6.15057 14.4083C6.19636 14.2404 6.28517 14.0874 6.40822 13.9643L14.5783 5.79425C14.8301 5.54244 15.1291 5.3427 15.4581 5.20642Z" fill="currentColor"/>
</symbol><symbol viewBox="0 0 13 12" fill="none" id="circle" xmlns="http://www.w3.org/2000/svg">
<rect x="1" y="0.5" width="11" height="11" rx="5.5" stroke="currentColor"/>
</symbol><symbol viewBox="0 0 17 14" fill="none" id="filter" xmlns="http://www.w3.org/2000/svg">
<path fill-rule="evenodd" clip-rule="evenodd" d="M0.307652 0.563855C0.474791 0.219004 0.824308 0 1.20753 0H15.2075C15.5907 0 15.9403 0.219004 16.1074 0.563855C16.2745 0.908705 16.2299 1.31874 15.9925 1.61955L10.6075 8.4421V13C10.6075 13.5523 10.1598 14 9.60753 14H6.80753C6.25524 14 5.80753 13.5523 5.80753 13V8.4421L0.422574 1.61955C0.185149 1.31874 0.140512 0.908705 0.307652 0.563855ZM3.27078 2L7.59248 7.47545C7.73177 7.65192 7.80753 7.87018 7.80753 8.095V12H8.60753V8.095C8.60753 7.87018 8.68329 7.65192 8.82257 7.47545L13.1443 2H3.27078Z" fill="currentColor"/>
</symbol><symbol viewBox="0 0 21 18" fill="none" id="heart" xmlns="http://www.w3.org/2000/svg">
<path fill-rule="evenodd" clip-rule="evenodd" d="M12.8742 0.914862C13.5669 0.64063 14.3079 0.5 15.0553 0.5C15.8026 0.5 16.5436 0.64063 17.2363 0.914862C17.9291 1.18912 18.5614 1.59221 19.096 2.10324C19.6308 2.61404 20.0576 3.22297 20.3497 3.89653C20.6419 4.57034 20.793 5.29428 20.793 6.02656C20.793 6.75883 20.6419 7.48277 20.3497 8.15658C20.0575 8.83021 19.6307 9.4392 19.0958 9.95004C19.0958 9.95009 19.0959 9.94999 19.0958 9.95004L11.4836 17.223C11.097 17.5923 10.4884 17.5923 10.1019 17.223L2.48967 9.95004C1.40904 8.91757 0.792969 7.50727 0.792969 6.02656C0.792969 4.54585 1.40904 3.13554 2.48967 2.10307C3.56874 1.07209 5.02294 0.50044 6.53022 0.50044C8.03749 0.50044 9.49169 1.07209 10.5708 2.10307L10.7927 2.31515L11.0145 2.10324C11.0146 2.10318 11.0145 2.10329 11.0145 2.10324C11.5491 1.59229 12.1815 1.18909 12.8742 0.914862ZM15.0553 2.5C14.5583 2.5 14.0672 2.5936 13.6104 2.77444C13.1536 2.95526 12.7415 3.21917 12.3965 3.54898L11.4836 4.42125C11.097 4.79053 10.4884 4.79053 10.1019 4.42125L9.18915 3.54914C8.49141 2.8825 7.53573 2.50044 6.53022 2.50044C5.5247 2.50044 4.56902 2.8825 3.87129 3.54914C3.1751 4.2143 2.79297 5.10646 2.79297 6.02656C2.79297 6.94665 3.1751 7.83881 3.87129 8.50397L10.7927 15.1169L17.7142 8.50397C18.0593 8.1744 18.3307 7.78543 18.5148 7.36084C18.6989 6.93637 18.793 6.48311 18.793 6.02656C18.793 5.57 18.6989 5.11675 18.5148 4.69228C18.3307 4.26769 18.0595 3.87887 17.7144 3.54931C17.3693 3.2195 16.9569 2.95526 16.5001 2.77444C16.0433 2.5936 15.5522 2.5 15.0553 2.5Z" fill="currentColor"/>
</symbol><symbol viewBox="0 0 23 25" fill="none" id="home" xmlns="http://www.w3.org/2000/svg">
<path d="M1.5 9.2L11.5 1.5L21.5 9.2V21.3C21.5 21.8835 21.2659 22.4431 20.8491 22.8556C20.4324 23.2682 19.8671 23.5 19.2778 23.5H3.72222C3.13285 23.5 2.56762 23.2682 2.15087 22.8556C1.73413 22.4431 1.5 21.8835 1.5 21.3V9.2Z" stroke="currentColor" stroke-width="2" stroke-linecap="round" stroke-linejoin="round"/>
<path d="M8 23.5V12.5H14V23.5" stroke="currentColor" stroke-width="2" stroke-linecap="round" stroke-linejoin="round"/>
</symbol><symbol viewBox="0 0 27 18" fill="none" id="menu" xmlns="http://www.w3.org/2000/svg">
<rect x="0.20752" width="2" height="2" rx="1" fill="currentColor"/>
<rect x="6.20752" width="20" height="2" rx="1" fill="currentColor"/>
<rect x="0.20752" y="8" width="2" height="2" rx="1" fill="currentColor"/>
<rect x="6.20752" y="8" width="20" height="2" rx="1" fill="currentColor"/>
<rect x="0.20752" y="16" width="2" height="2" rx="1" fill="currentColor"/>
<rect x="6.20752" y="16" width="20" height="2" rx="1" fill="currentColor"/>
</symbol><symbol viewBox="0 0 54 54" fill="none" id="next" xmlns="http://www.w3.org/2000/svg">
<rect x="1" y="1" width="51.4375" height="52.0001" rx="25.7188" stroke="currentColor" stroke-width="2"/>
<path fill-rule="evenodd" clip-rule="evenodd" d="M20.216 16.3793C20.5588 15.9463 21.1877 15.8732 21.6207 16.216L32.6789 24.9704C33.6588 25.7462 33.6951 27.2206 32.7545 28.0436L21.6585 37.7526C21.2429 38.1163 20.6111 38.0742 20.2475 37.6585C19.8838 37.2429 19.9259 36.6111 20.3415 36.2475L31.4375 26.5385L20.3793 17.7841C19.9463 17.4413 19.8732 16.8124 20.216 16.3793Z" fill="currentColor"/>
</symbol><symbol viewBox="0 0 24 25" fill="none" id="ok" xmlns="http://www.w3.org/2000/svg">
<circle cx="12" cy="12.5" r="12" fill="currentColor"/>
<path d="M6 12.5L9.60038 16.4604C10.0629 16.9692 10.889 16.8702 11.2182 16.2666L16 7.5" stroke="currentColor" stroke-width="2" stroke-linecap="round"/>
</symbol><symbol viewBox="0 0 25 23" fill="none" id="reset" xmlns="http://www.w3.org/2000/svg">
<path fill-rule="evenodd" clip-rule="evenodd" d="M1.5 1.35168C2.05228 1.35168 2.5 1.7994 2.5 2.35168V8.35168H8.5C9.05228 8.35168 9.5 8.7994 9.5 9.35168C9.5 9.90397 9.05228 10.3517 8.5 10.3517H1.5C0.947715 10.3517 0.5 9.90397 0.5 9.35168V2.35168C0.5 1.7994 0.947715 1.35168 1.5 1.35168Z" fill="currentColor"/>
<path fill-rule="evenodd" clip-rule="evenodd" d="M12.0792 0.459176C14.4219 0.126271 16.8077 0.571526 18.8768 1.72683C20.9458 2.88204 22.5851 4.68398 23.5496 6.85946C24.514 9.0348 24.7522 11.4671 24.2287 13.7904C23.7053 16.1138 22.448 18.2042 20.6444 19.7457C18.8405 21.2873 16.5881 22.1962 14.2262 22.3335C11.8643 22.4708 9.52303 21.8289 7.55536 20.5061C7.09702 20.1979 6.97527 19.5766 7.28341 19.1182C7.59155 18.6599 8.21289 18.5381 8.67123 18.8463C10.2773 19.9261 12.1861 20.4487 14.1102 20.3368C16.0342 20.225 17.8715 19.4846 19.3449 18.2253C20.8185 16.9659 21.8485 15.2555 22.2776 13.3508C22.7068 11.4461 22.5113 9.45218 21.7212 7.67007C20.9312 5.88809 19.59 4.4157 17.9018 3.47307C16.2137 2.53053 14.2691 2.16807 12.3606 2.43928C10.452 2.71051 8.68077 3.60108 7.31439 4.97882C7.30729 4.98599 7.30008 4.99304 7.29276 4.99999L2.1884 9.84443C1.78781 10.2246 1.15486 10.2081 0.774669 9.80749C0.394477 9.4069 0.411014 8.77395 0.811604 8.39376L5.90525 3.55949C7.57562 1.87997 9.74171 0.791347 12.0792 0.459176Z" fill="currentColor"/>
</symbol><symbol viewBox="0 0 18 19" fill="none" id="search" xmlns="http://www.w3.org/2000/svg">
<path fill-rule="evenodd" clip-rule="evenodd" d="M8.11111 2.5C4.73604 2.5 2 5.23604 2 8.61111C2 11.9862 4.73604 14.7222 8.11111 14.7222C11.4862 14.7222 14.2222 11.9862 14.2222 8.61111C14.2222 5.23604 11.4862 2.5 8.11111 2.5ZM0 8.61111C0 4.13147 3.63147 0.5 8.11111 0.5C12.5908 0.5 16.2222 4.13147 16.2222 8.61111C16.2222 13.0908 12.5908 16.7222 8.11111 16.7222C3.63147 16.7222 0 13.0908 0 8.61111Z" fill="currentColor"/>
<path fill-rule="evenodd" clip-rule="evenodd" d="M12.4262 12.9262C12.8167 12.5357 13.4499 12.5357 13.8404 12.9262L17.7071 16.7929C18.0976 17.1834 18.0976 17.8166 17.7071 18.2071C17.3166 18.5976 16.6834 18.5976 16.2929 18.2071L12.4262 14.3404C12.0357 13.9499 12.0357 13.3167 12.4262 12.9262Z" fill="currentColor"/>
</symbol><symbol viewBox="0 0 22 25" fill="none" id="user" xmlns="http://www.w3.org/2000/svg">
<path d="M21 23.5V21.1667C21 19.929 20.4732 18.742 19.5355 17.8668C18.5979 16.9917 17.3261 16.5 16 16.5H6C4.67392 16.5 3.40215 16.9917 2.46447 17.8668C1.52678 18.742 1 19.929 1 21.1667V23.5" stroke="currentColor" stroke-width="2" stroke-linecap="round" stroke-linejoin="round"/>
<path d="M10.5 11.5C13.2614 11.5 15.5 9.26142 15.5 6.5C15.5 3.73858 13.2614 1.5 10.5 1.5C7.73858 1.5 5.5 3.73858 5.5 6.5C5.5 9.26142 7.73858 11.5 10.5 11.5Z" stroke="currentColor" stroke-width="2" stroke-linecap="round" stroke-linejoin="round"/>
</symbol><symbol viewBox="0 0 24 25" fill="none" id="warning" xmlns="http://www.w3.org/2000/svg">
<circle cx="12" cy="12.5" r="12" fill="currentColor"/>
<circle cx="12" cy="18.5" r="1" fill="currentColor"/>
<rect x="11" y="4.5" width="2" height="11" rx="1" fill="currentColor"/>
</symbol></svg>