<svg width="165" height="20" viewBox="0 0 165 20" fill="none" xmlns="http://www.w3.org/2000/svg">
<path d="M0.872 19V0.592H7.71C11.532 0.592 14.704 1.814 14.704 6.182C14.704 10.498 11.766 11.824 7.892 11.824H4.928V19H0.872ZM4.928 4.024V8.392H7.632C9.062 8.392 10.492 7.898 10.492 6.182C10.492 4.284 8.568 4.024 7.008 4.024H4.928ZM17.249 19V0.592H24.373C28.143 0.592 31.315 1.892 31.315 6.182C31.315 8.756 29.937 10.758 27.337 11.226L32.017 19H27.155L23.307 11.642H21.305V19H17.249ZM21.305 4.024V8.21H23.697C25.179 8.21 27.103 8.158 27.103 6.156C27.103 4.31 25.439 4.024 23.957 4.024H21.305ZM34.0563 19V0.592H38.1123V19H34.0563ZM40.8397 19V15.256L50.1737 4.18H41.1777V0.592H55.0877V4.18L45.9357 15.256H55.3997V19H40.8397ZM58.1786 19V0.592H64.3146L68.5526 12.604H68.6046L72.8686 0.592H78.9786V19H74.9226V4.882H74.8706L70.0346 19H66.9406L62.2866 4.882H62.2346V19H58.1786ZM80.8334 19L88.7894 0.592H92.1434L100.151 19H95.5754L93.9894 15.1H86.8394L85.3054 19H80.8334ZM92.6114 11.668L90.3494 5.948L88.1134 11.668H92.6114ZM103.178 19V4.18H97.9261V0.592H112.486V4.18H107.234V19H103.178ZM114.702 19V0.592H127.208V4.336H118.758V7.768H126.74V11.512H118.758V15.256H127.676V19H114.702ZM146.081 2.828L142.961 5.376C142.155 4.414 140.985 3.868 139.477 3.868C136.409 3.868 134.147 6.364 134.147 9.796C134.147 13.228 136.409 15.724 139.347 15.724C140.985 15.724 142.311 14.996 143.143 13.748L146.523 16.27C144.989 18.454 142.389 19.468 139.867 19.468C134.121 19.468 129.935 15.698 129.935 9.796C129.935 3.894 134.121 0.124 139.867 0.124C141.921 0.124 144.521 0.825998 146.081 2.828ZM148.722 19V0.592H152.778V7.456H160.656V0.592H164.712V19H160.656V11.044H152.778V19H148.722Z" fill="#131018"/>
</svg>
